<svg id="Layer_1" data-name="Layer 1" xmlns="http://www.w3.org/2000/svg" viewBox="0 0 400 116.64"><defs><style>.cls-1{fill:#ffd400;}.cls-2{fill:#231f20;}</style></defs><title>logo</title><rect class="cls-1" x="1.69" y="4.15" width="162.94" height="108.28"/><polygon class="cls-2" points="177.68 4.38 177.68 0.65 166.61 1.39 155.56 0.65 155.56 4.38 162.46 7.35 162.46 109.46 155.56 112.43 155.56 116.16 166.61 115.43 177.68 116.16 177.68 112.43 170.38 109.29 170.38 7.52 177.68 4.38"/><path class="cls-2" d="M32.65,27.59H43.71V52.67H68.89V27.59H80V90H68.89V62.3H43.71V90H32.65Z"/><path class="cls-2" d="M91.11,27.59h11.73L111.62,59c2,7.06,3.33,13.17,5.43,20.32h.38C119.53,72.13,121,66,123,59l8.68-31.37H142.9L123.63,90H110.47Z"/><path class="cls-2" d="M188.39,58.49c0-20.13,11.26-32,27.56-32s27.47,11.92,27.47,32.05S232.17,91.1,216,91.1,188.39,78.71,188.39,58.49Zm43.68,0c0-13.93-6.39-22.42-16.12-22.42s-16.21,8.49-16.21,22.42,6.39,23,16.21,23S232.07,72.51,232.07,58.49Z"/><path class="cls-2" d="M265.83,93.78v14.68h-11V43.13h9.06l.76,5h.38c3.91-3.34,9-6.1,14.12-6.1,11.63,0,18.4,9.34,18.4,23.84,0,16-9.63,25.27-20,25.27-4.11,0-8.21-1.9-12-5.15ZM275.28,82c6.2,0,11-5.53,11-16.11,0-9.35-3.05-14.88-10.1-14.88-3.44,0-6.68,1.71-10.31,5.24V78.13C269.27,81,272.51,82,275.28,82Z"/><path class="cls-2" d="M327.83,42c12.68,0,19.36,9.15,19.36,22.22a23.25,23.25,0,0,1-.48,5.15H317c1,8.49,6.29,13.26,13.82,13.26a19.55,19.55,0,0,0,10.88-3.44l3.72,6.87a29.54,29.54,0,0,1-16,5c-13,0-23.08-9.06-23.08-24.51C306.27,51.33,316.86,42,327.83,42Zm9.82,20.41c0-7.44-3.15-11.92-9.54-11.92-5.53,0-10.3,4.1-11.25,11.92Z"/><path class="cls-2" d="M358.35,43.13h9.06l.76,6.3h.38c4.2-4.11,9-7.44,15.36-7.44,10,0,14.4,6.77,14.4,18.59V90h-11V62c0-7.73-2.19-10.59-7.34-10.59-4.1,0-6.77,2-10.68,5.82V90h-11Z"/></svg>