<svg id="Layer_1" data-name="Layer 1" xmlns="http://www.w3.org/2000/svg" viewBox="0 0 400 400"><defs><style>.cls-1{fill:#ffd400;}.cls-2{fill:#231f20;}</style></defs><title>logo</title><rect class="cls-1" x="35.47" y="100.47" width="304.2" height="202.15"/><polygon class="cls-2" points="364.03 100.9 364.03 93.94 343.37 95.31 322.73 93.94 322.73 100.91 335.62 106.45 335.62 297.08 322.73 302.62 322.73 309.58 343.37 308.22 364.03 309.59 364.03 302.62 350.41 296.76 350.41 106.76 364.03 100.9"/><path class="cls-2" d="M93.27,144.22h20.65v46.83h47V144.22h20.65V260.67H160.93V209h-47v51.63H93.27Z"/><path class="cls-2" d="M202.42,144.22h21.9L240.7,202.8c3.73,13.18,6.23,24.58,10.15,37.93h.71c3.91-13.35,6.59-24.75,10.32-37.93l16.21-58.58h21l-36,116.45H238.56Z"/></svg>